# xmcd
#
# Track frame offsets:
#	150
#	23744
#	44800
#	64834
#	79268
#	101815
#	123330
#	145096
#
# Disc length: 2255 seconds
#
# Revision: 0
# Processed by: cddbd v1.5.2PL0 Copyright (c) Steve Scherf et al.
# Submitted via: EasyCDDAExtractor 15.2.5.1
#
DISCID=6f08cd08
DTITLE=RADIOHEAD - KING OF LIMBS
DYEAR=1900
DGENRE=
TTITLE0=BLOOM
TTITLE1=MORNING MR. MAGPIE
TTITLE2=LITTLE BY LITTLE
TTITLE3=FERAL
TTITLE4=LOTUS FLOWER
TTITLE5=CODEX
TTITLE6=GIVE UP THE GHOST
TTITLE7=SEPARATOR
EXTD=
EXTT0=
EXTT1=
EXTT2=
EXTT3=
EXTT4=
EXTT5=
EXTT6=
EXTT7=
PLAYORDER=
